<?xml version="1.0" standalone="no"?>
<!DOCTYPE svg PUBLIC "-//W3C//DTD SVG 20010904//EN"
 "http://www.w3.org/TR/2001/REC-SVG-20010904/DTD/svg10.dtd">
<svg version="1.0" xmlns="http://www.w3.org/2000/svg"
 width="1337.000000pt" height="1337.000000pt" viewBox="0 0 1337.000000 1337.000000"
 preserveAspectRatio="xMidYMid meet">
<metadata>
Created by potrace 1.14, written by Peter Selinger 2001-2017
</metadata>
<g transform="translate(0.000000,1337.000000) scale(0.100000,-0.100000)"
fill="#000000" stroke="none">
<path d="M6510 12260 c-19 -5 -78 -13 -130 -20 -199 -25 -443 -101 -632 -196
-293 -147 -558 -389 -727 -662 -133 -214 -224 -454 -271 -716 -24 -133 -44
-418 -36 -503 4 -35 3 -63 -1 -63 -5 0 -41 24 -80 54 -189 142 -452 242 -763
291 -135 21 -424 22 -577 1 -460 -63 -880 -272 -1181 -590 -294 -311 -477
-715 -523 -1154 -15 -147 -7 -456 16 -582 67 -371 223 -693 460 -947 89 -97
211 -197 309 -256 38 -22 63 -43 55 -46 -13 -4 -709 14 -966 25 l-133 6 0
-227 0 -227 138 6 c155 8 838 26 951 26 l75 0 -60 -36 c-189 -114 -379 -305
-504 -509 -97 -158 -182 -370 -224 -557 -40 -184 -49 -287 -43 -520 4 -178 9
-233 31 -336 133 -623 602 -1121 1280 -1358 175 -61 475 -126 630 -136 l50 -3
103 170 c57 93 103 172 103 175 0 3 -55 11 -122 18 -324 34 -656 137 -891 278
-252 151 -469 383 -587 627 -114 239 -165 529 -142 810 38 445 209 804 498
1046 212 177 434 272 736 317 153 22 439 15 583 -16 536 -114 933 -479 1070
-983 15 -55 22 -68 42 -73 13 -4 25 -5 27 -3 24 29 236 374 236 385 0 31 -102
221 -167 312 -112 156 -233 269 -409 379 -15 9 161 12 794 12 446 1 812 -1
812 -3 0 -3 -86 -150 -450 -771 -107 -181 -222 -377 -255 -435 -229 -390 -527
-898 -725 -1235 -68 -115 -205 -349 -305 -520 -100 -170 -221 -377 -270 -460
-48 -82 -158 -269 -243 -415 -85 -146 -182 -310 -214 -364 -47 -80 -56 -102
-46 -111 7 -7 93 -60 190 -118 l177 -106 55 97 c30 53 143 259 251 457 108
198 201 364 205 368 4 5 11 -18 15 -50 14 -123 47 -267 90 -399 224 -687 767
-1156 1480 -1279 373 -64 798 -24 1128 106 659 261 1077 794 1192 1519 9 58
20 197 23 309 l7 203 55 -44 c177 -144 441 -249 765 -304 143 -25 471 -25 620
0 133 21 346 75 435 109 201 76 440 219 600 359 597 522 815 1411 539 2194
-124 352 -390 689 -682 866 -37 22 -66 42 -64 44 2 2 167 -1 368 -7 200 -6
450 -11 554 -12 l190 -2 0 215 0 215 -280 -3 c-154 -1 -413 -6 -575 -10 -162
-4 -297 -6 -300 -4 -3 3 1 7 9 10 7 2 54 31 103 64 727 487 945 1668 451 2441
-306 479 -836 802 -1496 912 -54 9 -130 17 -169 18 l-71 2 -104 -169 c-57 -93
-102 -170 -101 -172 2 -1 50 -7 108 -14 398 -42 728 -154 1002 -342 116 -79
270 -226 354 -338 89 -118 183 -309 222 -451 52 -188 62 -271 58 -489 -4 -221
-26 -352 -91 -541 -168 -483 -570 -823 -1076 -908 -229 -38 -441 -36 -659 9
-188 38 -364 111 -520 216 -99 66 -252 214 -323 312 -101 140 -199 349 -223
476 -5 27 -13 40 -32 47 -14 5 -28 6 -32 2 -4 -4 -60 -91 -124 -192 -90 -141
-115 -188 -110 -205 15 -48 91 -187 148 -271 105 -154 295 -338 404 -390 23
-11 42 -23 42 -27 0 -10 -1614 -11 -1623 -1 -4 3 -3 11 2 17 5 6 48 79 96 161
145 247 416 710 510 870 92 156 374 636 575 980 161 275 369 630 475 810 49
83 109 186 135 230 26 44 92 157 147 250 55 94 202 346 327 560 126 215 233
396 238 402 6 7 8 19 5 26 -8 20 -367 231 -377 221 -5 -5 -45 -75 -89 -156
-45 -82 -117 -214 -162 -295 -45 -82 -120 -219 -167 -305 -48 -87 -89 -158
-93 -158 -3 0 -9 32 -13 71 -17 183 -101 464 -197 653 -288 574 -795 928
-1459 1022 -134 19 -403 27 -460 14z m525 -463 c302 -68 535 -195 751 -411
268 -269 411 -585 446 -988 32 -367 -61 -731 -263 -1038 -76 -115 -268 -311
-381 -388 -169 -115 -362 -196 -578 -244 -92 -20 -133 -23 -325 -23 -191 0
-234 3 -323 23 -328 72 -555 194 -777 416 -180 180 -289 354 -364 581 -128
385 -120 769 24 1151 68 181 180 348 340 510 169 169 317 266 537 348 204 76
336 96 603 91 167 -3 218 -8 310 -28z m-3270 -1787 c656 -76 1172 -517 1329
-1137 74 -291 60 -651 -35 -937 -221 -663 -785 -1066 -1496 -1066 -254 0 -482
53 -697 163 -582 296 -903 949 -811 1649 67 513 383 955 840 1178 272 132 572
184 870 150z m1895 -1454 c307 -188 726 -290 1112 -272 224 10 434 57 597 132
41 19 75 33 76 32 2 -2 -107 -187 -240 -413 -134 -225 -340 -573 -457 -771
l-213 -362 -190 -6 c-319 -10 -1625 -30 -1630 -24 -3 2 33 30 79 61 206 140
390 352 520 599 154 291 228 594 230 945 l1 152 25 -17 c14 -9 54 -34 90 -56z
m2980 -2063 c-1 -5 -38 -33 -83 -63 -94 -64 -244 -203 -329 -308 -198 -242
-335 -558 -394 -907 -9 -55 -19 -184 -23 -287 l-6 -187 -64 40 c-198 127 -443
221 -711 274 -114 23 -474 32 -608 15 -132 -16 -300 -61 -413 -109 -51 -22
-94 -39 -96 -37 -2 2 74 133 168 292 183 309 354 596 593 1000 l149 251 401 8
c411 8 1089 20 1299 23 64 1 117 -1 117 -5z m1450 -22 c646 -132 1105 -623
1206 -1291 18 -122 21 -388 5 -500 -30 -207 -116 -446 -222 -615 -222 -355
-568 -595 -993 -687 -87 -19 -132 -22 -321 -22 -191 0 -234 3 -325 23 -512
110 -910 432 -1107 896 -125 296 -153 624 -83 980 51 262 182 528 360 732 242
278 616 464 1015 507 94 10 372 -4 465 -23z m-3106 -1831 c283 -60 527 -179
721 -352 250 -223 398 -479 481 -834 27 -112 29 -132 28 -349 0 -258 -12 -338
-80 -543 -128 -382 -418 -710 -775 -876 -451 -210 -974 -204 -1414 17 -205
102 -433 303 -558 492 -130 198 -219 428 -253 656 -22 155 -15 451 15 591 43
200 127 400 237 565 72 107 232 275 342 358 204 153 477 261 744 295 119 15
398 4 512 -20z"/>
</g>
</svg>
